<?xml version="1.0" encoding="utf-8" standalone="no"?>
<!DOCTYPE svg PUBLIC "-//W3C//DTD SVG 1.1//EN"
  "http://www.w3.org/Graphics/SVG/1.1/DTD/svg11.dtd">
<svg xmlns:xlink="http://www.w3.org/1999/xlink" width="1016.39952pt" height="1016.39952pt" viewBox="0 0 1016.39952 1016.39952" xmlns="http://www.w3.org/2000/svg" version="1.1">
 <metadata>
  <rdf:RDF xmlns:dc="http://purl.org/dc/elements/1.1/" xmlns:cc="http://creativecommons.org/ns#" xmlns:rdf="http://www.w3.org/1999/02/22-rdf-syntax-ns#">
   <cc:Work>
    <dc:type rdf:resource="http://purl.org/dc/dcmitype/StillImage"/>
    <dc:date>2026-04-30T08:19:55.714106</dc:date>
    <dc:format>image/svg+xml</dc:format>
    <dc:creator>
     <cc:Agent>
      <dc:title>Matplotlib v3.10.9, https://matplotlib.org/</dc:title>
     </cc:Agent>
    </dc:creator>
   </cc:Work>
  </rdf:RDF>
 </metadata>
 <defs>
  <style type="text/css">*{stroke-linejoin: round; stroke-linecap: butt}</style>
 </defs>
 <g id="figure_1">
  <g id="patch_1">
   <path d="M 0 1016.39952 
L 1016.39952 1016.39952 
L 1016.39952 -0 
L 0 -0 
z
" style="fill: #ffffff"/>
  </g>
  <g id="axes_1">
   <g id="patch_2">
    <path d="M 65.081563 432.213198 
L 1009.19952 432.213198 
L 1009.19952 52.1975 
L 65.081563 52.1975 
z
" style="fill: #ffffff"/>
   </g>
   <g id="matplotlib.axis_1">
    <g id="xtick_1">
     <g id="line2d_1">
      <defs>
       <path id="me66eea6545" d="M 0 0 
L 0 3.5 
" style="stroke: #000000; stroke-width: 0.8"/>
      </defs>
      <g>
       <use xlink:href="#me66eea6545" x="65.081563" y="432.213198" style="stroke: #000000; stroke-width: 0.8"/>
      </g>
     </g>
     <g id="text_1">
      <!-- 0 -->
      <g transform="translate(57.081563 461.433198) scale(0.32 -0.32)">
       <defs>
        <path id="TimesNewRomanPSMT-30" d="M 231 2094 
Q 231 2819 450 3342 
Q 669 3866 1031 4122 
Q 1313 4325 1613 4325 
Q 2100 4325 2488 3828 
Q 2972 3213 2972 2159 
Q 2972 1422 2759 906 
Q 2547 391 2217 158 
Q 1888 -75 1581 -75 
Q 975 -75 572 641 
Q 231 1244 231 2094 
z
M 844 2016 
Q 844 1141 1059 588 
Q 1238 122 1591 122 
Q 1759 122 1940 273 
Q 2122 425 2216 781 
Q 2359 1319 2359 2297 
Q 2359 3022 2209 3506 
Q 2097 3866 1919 4016 
Q 1791 4119 1609 4119 
Q 1397 4119 1231 3928 
Q 1006 3669 925 3112 
Q 844 2556 844 2016 
z
" transform="scale(0.015625)"/>
       </defs>
       <use xlink:href="#TimesNewRomanPSMT-30"/>
      </g>
     </g>
    </g>
    <g id="xtick_2">
     <g id="line2d_2">
      <g>
       <use xlink:href="#me66eea6545" x="269.347672" y="432.213198" style="stroke: #000000; stroke-width: 0.8"/>
      </g>
     </g>
     <g id="text_2">
      <!-- 1000 -->
      <g transform="translate(237.347672 461.433198) scale(0.32 -0.32)">
       <defs>
        <path id="TimesNewRomanPSMT-31" d="M 750 3822 
L 1781 4325 
L 1884 4325 
L 1884 747 
Q 1884 391 1914 303 
Q 1944 216 2037 169 
Q 2131 122 2419 116 
L 2419 0 
L 825 0 
L 825 116 
Q 1125 122 1212 167 
Q 1300 213 1334 289 
Q 1369 366 1369 747 
L 1369 3034 
Q 1369 3497 1338 3628 
Q 1316 3728 1258 3775 
Q 1200 3822 1119 3822 
Q 1003 3822 797 3725 
L 750 3822 
z
" transform="scale(0.015625)"/>
       </defs>
       <use xlink:href="#TimesNewRomanPSMT-31"/>
       <use xlink:href="#TimesNewRomanPSMT-30" transform="translate(50 0)"/>
       <use xlink:href="#TimesNewRomanPSMT-30" transform="translate(100 0)"/>
       <use xlink:href="#TimesNewRomanPSMT-30" transform="translate(150 0)"/>
      </g>
     </g>
    </g>
    <g id="xtick_3">
     <g id="line2d_3">
      <g>
       <use xlink:href="#me66eea6545" x="473.613781" y="432.213198" style="stroke: #000000; stroke-width: 0.8"/>
      </g>
     </g>
     <g id="text_3">
      <!-- 2000 -->
      <g transform="translate(441.613781 461.433198) scale(0.32 -0.32)">
       <defs>
        <path id="TimesNewRomanPSMT-32" d="M 2934 816 
L 2638 0 
L 138 0 
L 138 116 
Q 1241 1122 1691 1759 
Q 2141 2397 2141 2925 
Q 2141 3328 1894 3587 
Q 1647 3847 1303 3847 
Q 991 3847 742 3664 
Q 494 3481 375 3128 
L 259 3128 
Q 338 3706 661 4015 
Q 984 4325 1469 4325 
Q 1984 4325 2329 3994 
Q 2675 3663 2675 3213 
Q 2675 2891 2525 2569 
Q 2294 2063 1775 1497 
Q 997 647 803 472 
L 1909 472 
Q 2247 472 2383 497 
Q 2519 522 2628 598 
Q 2738 675 2819 816 
L 2934 816 
z
" transform="scale(0.015625)"/>
       </defs>
       <use xlink:href="#TimesNewRomanPSMT-32"/>
       <use xlink:href="#TimesNewRomanPSMT-30" transform="translate(50 0)"/>
       <use xlink:href="#TimesNewRomanPSMT-30" transform="translate(100 0)"/>
       <use xlink:href="#TimesNewRomanPSMT-30" transform="translate(150 0)"/>
      </g>
     </g>
    </g>
    <g id="xtick_4">
     <g id="line2d_4">
      <g>
       <use xlink:href="#me66eea6545" x="677.879891" y="432.213198" style="stroke: #000000; stroke-width: 0.8"/>
      </g>
     </g>
     <g id="text_4">
      <!-- 3000 -->
      <g transform="translate(645.879891 461.433198) scale(0.32 -0.32)">
       <defs>
        <path id="TimesNewRomanPSMT-33" d="M 325 3431 
Q 506 3859 782 4092 
Q 1059 4325 1472 4325 
Q 1981 4325 2253 3994 
Q 2459 3747 2459 3466 
Q 2459 3003 1878 2509 
Q 2269 2356 2469 2072 
Q 2669 1788 2669 1403 
Q 2669 853 2319 450 
Q 1863 -75 997 -75 
Q 569 -75 414 31 
Q 259 138 259 259 
Q 259 350 332 419 
Q 406 488 509 488 
Q 588 488 669 463 
Q 722 447 909 348 
Q 1097 250 1169 231 
Q 1284 197 1416 197 
Q 1734 197 1970 444 
Q 2206 691 2206 1028 
Q 2206 1275 2097 1509 
Q 2016 1684 1919 1775 
Q 1784 1900 1550 2001 
Q 1316 2103 1072 2103 
L 972 2103 
L 972 2197 
Q 1219 2228 1467 2375 
Q 1716 2522 1828 2728 
Q 1941 2934 1941 3181 
Q 1941 3503 1739 3701 
Q 1538 3900 1238 3900 
Q 753 3900 428 3381 
L 325 3431 
z
" transform="scale(0.015625)"/>
       </defs>
       <use xlink:href="#TimesNewRomanPSMT-33"/>
       <use xlink:href="#TimesNewRomanPSMT-30" transform="translate(50 0)"/>
       <use xlink:href="#TimesNewRomanPSMT-30" transform="translate(100 0)"/>
       <use xlink:href="#TimesNewRomanPSMT-30" transform="translate(150 0)"/>
      </g>
     </g>
    </g>
    <g id="xtick_5">
     <g id="line2d_5">
      <g>
       <use xlink:href="#me66eea6545" x="882.146" y="432.213198" style="stroke: #000000; stroke-width: 0.8"/>
      </g>
     </g>
     <g id="text_5">
      <!-- 4000 -->
      <g transform="translate(850.146 461.433198) scale(0.32 -0.32)">
       <defs>
        <path id="TimesNewRomanPSMT-34" d="M 2978 1563 
L 2978 1119 
L 2409 1119 
L 2409 0 
L 1894 0 
L 1894 1119 
L 100 1119 
L 100 1519 
L 2066 4325 
L 2409 4325 
L 2409 1563 
L 2978 1563 
z
M 1894 1563 
L 1894 3666 
L 406 1563 
L 1894 1563 
z
" transform="scale(0.015625)"/>
       </defs>
       <use xlink:href="#TimesNewRomanPSMT-34"/>
       <use xlink:href="#TimesNewRomanPSMT-30" transform="translate(50 0)"/>
       <use xlink:href="#TimesNewRomanPSMT-30" transform="translate(100 0)"/>
       <use xlink:href="#TimesNewRomanPSMT-30" transform="translate(150 0)"/>
      </g>
     </g>
    </g>
    <g id="text_6">
     <!-- Sorted Observations -->
     <g transform="translate(398.797729 495.886948) scale(0.34 -0.34)">
      <defs>
       <path id="TimesNewRomanPSMT-53" d="M 2934 4334 
L 2934 2869 
L 2819 2869 
Q 2763 3291 2617 3541 
Q 2472 3791 2203 3937 
Q 1934 4084 1647 4084 
Q 1322 4084 1109 3886 
Q 897 3688 897 3434 
Q 897 3241 1031 3081 
Q 1225 2847 1953 2456 
Q 2547 2138 2764 1967 
Q 2981 1797 3098 1565 
Q 3216 1334 3216 1081 
Q 3216 600 2842 251 
Q 2469 -97 1881 -97 
Q 1697 -97 1534 -69 
Q 1438 -53 1133 45 
Q 828 144 747 144 
Q 669 144 623 97 
Q 578 50 556 -97 
L 441 -97 
L 441 1356 
L 556 1356 
Q 638 900 775 673 
Q 913 447 1195 297 
Q 1478 147 1816 147 
Q 2206 147 2432 353 
Q 2659 559 2659 841 
Q 2659 997 2573 1156 
Q 2488 1316 2306 1453 
Q 2184 1547 1640 1851 
Q 1097 2156 867 2337 
Q 638 2519 519 2737 
Q 400 2956 400 3219 
Q 400 3675 750 4004 
Q 1100 4334 1641 4334 
Q 1978 4334 2356 4169 
Q 2531 4091 2603 4091 
Q 2684 4091 2736 4139 
Q 2788 4188 2819 4334 
L 2934 4334 
z
" transform="scale(0.015625)"/>
       <path id="TimesNewRomanPSMT-6f" d="M 1600 2947 
Q 2250 2947 2644 2453 
Q 2978 2031 2978 1484 
Q 2978 1100 2793 706 
Q 2609 313 2286 112 
Q 1963 -88 1566 -88 
Q 919 -88 538 428 
Q 216 863 216 1403 
Q 216 1797 411 2186 
Q 606 2575 925 2761 
Q 1244 2947 1600 2947 
z
M 1503 2744 
Q 1338 2744 1170 2645 
Q 1003 2547 900 2300 
Q 797 2053 797 1666 
Q 797 1041 1045 587 
Q 1294 134 1700 134 
Q 2003 134 2200 384 
Q 2397 634 2397 1244 
Q 2397 2006 2069 2444 
Q 1847 2744 1503 2744 
z
" transform="scale(0.015625)"/>
       <path id="TimesNewRomanPSMT-72" d="M 1038 2947 
L 1038 2303 
Q 1397 2947 1775 2947 
Q 1947 2947 2059 2842 
Q 2172 2738 2172 2600 
Q 2172 2478 2090 2393 
Q 2009 2309 1897 2309 
Q 1788 2309 1652 2417 
Q 1516 2525 1450 2525 
Q 1394 2525 1328 2463 
Q 1188 2334 1038 2041 
L 1038 669 
Q 1038 431 1097 309 
Q 1138 225 1241 169 
Q 1344 113 1538 113 
L 1538 0 
L 72 0 
L 72 113 
Q 291 113 397 181 
Q 475 231 506 341 
Q 522 394 522 644 
L 522 1753 
Q 522 2253 501 2348 
Q 481 2444 426 2487 
Q 372 2531 291 2531 
Q 194 2531 72 2484 
L 41 2597 
L 906 2947 
L 1038 2947 
z
" transform="scale(0.015625)"/>
       <path id="TimesNewRomanPSMT-74" d="M 1031 3803 
L 1031 2863 
L 1700 2863 
L 1700 2644 
L 1031 2644 
L 1031 788 
Q 1031 509 1111 412 
Q 1191 316 1316 316 
Q 1419 316 1516 380 
Q 1613 444 1666 569 
L 1788 569 
Q 1678 263 1478 108 
Q 1278 -47 1066 -47 
Q 922 -47 784 33 
Q 647 113 581 261 
Q 516 409 516 719 
L 516 2644 
L 63 2644 
L 63 2747 
Q 234 2816 414 2980 
Q 594 3144 734 3369 
Q 806 3488 934 3803 
L 1031 3803 
z
" transform="scale(0.015625)"/>
       <path id="TimesNewRomanPSMT-65" d="M 681 1784 
Q 678 1147 991 784 
Q 1303 422 1725 422 
Q 2006 422 2214 576 
Q 2422 731 2563 1106 
L 2659 1044 
Q 2594 616 2278 264 
Q 1963 -88 1488 -88 
Q 972 -88 605 314 
Q 238 716 238 1394 
Q 238 2128 614 2539 
Q 991 2950 1559 2950 
Q 2041 2950 2350 2633 
Q 2659 2316 2659 1784 
L 681 1784 
z
M 681 1966 
L 2006 1966 
Q 1991 2241 1941 2353 
Q 1863 2528 1708 2628 
Q 1553 2728 1384 2728 
Q 1125 2728 920 2526 
Q 716 2325 681 1966 
z
" transform="scale(0.015625)"/>
       <path id="TimesNewRomanPSMT-64" d="M 2222 322 
Q 2013 103 1813 7 
Q 1613 -88 1381 -88 
Q 913 -88 563 304 
Q 213 697 213 1313 
Q 213 1928 600 2439 
Q 988 2950 1597 2950 
Q 1975 2950 2222 2709 
L 2222 3238 
Q 2222 3728 2198 3840 
Q 2175 3953 2125 3993 
Q 2075 4034 2000 4034 
Q 1919 4034 1784 3984 
L 1744 4094 
L 2597 4444 
L 2738 4444 
L 2738 1134 
Q 2738 631 2761 520 
Q 2784 409 2836 365 
Q 2888 322 2956 322 
Q 3041 322 3181 375 
L 3216 266 
L 2366 -88 
L 2222 -88 
L 2222 322 
z
M 2222 541 
L 2222 2016 
Q 2203 2228 2109 2403 
Q 2016 2578 1861 2667 
Q 1706 2756 1559 2756 
Q 1284 2756 1069 2509 
Q 784 2184 784 1559 
Q 784 928 1059 592 
Q 1334 256 1672 256 
Q 1956 256 2222 541 
z
" transform="scale(0.015625)"/>
       <path id="TimesNewRomanPSMT-20" transform="scale(0.015625)"/>
       <path id="TimesNewRomanPSMT-4f" d="M 2341 4334 
Q 3166 4334 3770 3707 
Q 4375 3081 4375 2144 
Q 4375 1178 3765 540 
Q 3156 -97 2291 -97 
Q 1416 -97 820 525 
Q 225 1147 225 2134 
Q 225 3144 913 3781 
Q 1509 4334 2341 4334 
z
M 2281 4106 
Q 1713 4106 1369 3684 
Q 941 3159 941 2147 
Q 941 1109 1384 550 
Q 1725 125 2284 125 
Q 2881 125 3270 590 
Q 3659 1056 3659 2059 
Q 3659 3147 3231 3681 
Q 2888 4106 2281 4106 
z
" transform="scale(0.015625)"/>
       <path id="TimesNewRomanPSMT-62" d="M 984 2369 
Q 1400 2947 1881 2947 
Q 2322 2947 2650 2570 
Q 2978 2194 2978 1541 
Q 2978 778 2472 313 
Q 2038 -88 1503 -88 
Q 1253 -88 995 3 
Q 738 94 469 275 
L 469 3241 
Q 469 3728 445 3840 
Q 422 3953 372 3993 
Q 322 4034 247 4034 
Q 159 4034 28 3984 
L -16 4094 
L 844 4444 
L 984 4444 
L 984 2369 
z
M 984 2169 
L 984 456 
Q 1144 300 1314 220 
Q 1484 141 1663 141 
Q 1947 141 2192 453 
Q 2438 766 2438 1363 
Q 2438 1913 2192 2208 
Q 1947 2503 1634 2503 
Q 1469 2503 1303 2419 
Q 1178 2356 984 2169 
z
" transform="scale(0.015625)"/>
       <path id="TimesNewRomanPSMT-73" d="M 2050 2947 
L 2050 1972 
L 1947 1972 
Q 1828 2431 1642 2597 
Q 1456 2763 1169 2763 
Q 950 2763 815 2647 
Q 681 2531 681 2391 
Q 681 2216 781 2091 
Q 878 1963 1175 1819 
L 1631 1597 
Q 2266 1288 2266 781 
Q 2266 391 1970 151 
Q 1675 -88 1309 -88 
Q 1047 -88 709 6 
Q 606 38 541 38 
Q 469 38 428 -44 
L 325 -44 
L 325 978 
L 428 978 
Q 516 541 762 319 
Q 1009 97 1316 97 
Q 1531 97 1667 223 
Q 1803 350 1803 528 
Q 1803 744 1651 891 
Q 1500 1038 1047 1263 
Q 594 1488 453 1669 
Q 313 1847 313 2119 
Q 313 2472 555 2709 
Q 797 2947 1181 2947 
Q 1350 2947 1591 2875 
Q 1750 2828 1803 2828 
Q 1853 2828 1881 2850 
Q 1909 2872 1947 2947 
L 2050 2947 
z
" transform="scale(0.015625)"/>
       <path id="TimesNewRomanPSMT-76" d="M 53 2863 
L 1400 2863 
L 1400 2747 
L 1313 2747 
Q 1191 2747 1127 2687 
Q 1063 2628 1063 2528 
Q 1063 2419 1128 2269 
L 1794 688 
L 2463 2328 
Q 2534 2503 2534 2594 
Q 2534 2638 2509 2666 
Q 2475 2713 2422 2730 
Q 2369 2747 2206 2747 
L 2206 2863 
L 3141 2863 
L 3141 2747 
Q 2978 2734 2916 2681 
Q 2806 2588 2719 2369 
L 1703 -88 
L 1575 -88 
L 553 2328 
Q 484 2497 421 2570 
Q 359 2644 263 2694 
Q 209 2722 53 2747 
L 53 2863 
z
" transform="scale(0.015625)"/>
       <path id="TimesNewRomanPSMT-61" d="M 1822 413 
Q 1381 72 1269 19 
Q 1100 -59 909 -59 
Q 613 -59 420 144 
Q 228 347 228 678 
Q 228 888 322 1041 
Q 450 1253 767 1440 
Q 1084 1628 1822 1897 
L 1822 2009 
Q 1822 2438 1686 2597 
Q 1550 2756 1291 2756 
Q 1094 2756 978 2650 
Q 859 2544 859 2406 
L 866 2225 
Q 866 2081 792 2003 
Q 719 1925 600 1925 
Q 484 1925 411 2006 
Q 338 2088 338 2228 
Q 338 2497 613 2722 
Q 888 2947 1384 2947 
Q 1766 2947 2009 2819 
Q 2194 2722 2281 2516 
Q 2338 2381 2338 1966 
L 2338 994 
Q 2338 584 2353 492 
Q 2369 400 2405 369 
Q 2441 338 2488 338 
Q 2538 338 2575 359 
Q 2641 400 2828 588 
L 2828 413 
Q 2478 -56 2159 -56 
Q 2006 -56 1915 50 
Q 1825 156 1822 413 
z
M 1822 616 
L 1822 1706 
Q 1350 1519 1213 1441 
Q 966 1303 859 1153 
Q 753 1003 753 825 
Q 753 600 887 451 
Q 1022 303 1197 303 
Q 1434 303 1822 616 
z
" transform="scale(0.015625)"/>
       <path id="TimesNewRomanPSMT-69" d="M 928 4444 
Q 1059 4444 1151 4351 
Q 1244 4259 1244 4128 
Q 1244 3997 1151 3903 
Q 1059 3809 928 3809 
Q 797 3809 703 3903 
Q 609 3997 609 4128 
Q 609 4259 701 4351 
Q 794 4444 928 4444 
z
M 1188 2947 
L 1188 647 
Q 1188 378 1227 289 
Q 1266 200 1342 156 
Q 1419 113 1622 113 
L 1622 0 
L 231 0 
L 231 113 
Q 441 113 512 153 
Q 584 194 626 287 
Q 669 381 669 647 
L 669 1750 
Q 669 2216 641 2353 
Q 619 2453 572 2492 
Q 525 2531 444 2531 
Q 356 2531 231 2484 
L 188 2597 
L 1050 2947 
L 1188 2947 
z
" transform="scale(0.015625)"/>
       <path id="TimesNewRomanPSMT-6e" d="M 1034 2341 
Q 1538 2947 1994 2947 
Q 2228 2947 2397 2830 
Q 2566 2713 2666 2444 
Q 2734 2256 2734 1869 
L 2734 647 
Q 2734 375 2778 278 
Q 2813 200 2889 156 
Q 2966 113 3172 113 
L 3172 0 
L 1756 0 
L 1756 113 
L 1816 113 
Q 2016 113 2095 173 
Q 2175 234 2206 353 
Q 2219 400 2219 647 
L 2219 1819 
Q 2219 2209 2117 2386 
Q 2016 2563 1775 2563 
Q 1403 2563 1034 2156 
L 1034 647 
Q 1034 356 1069 288 
Q 1113 197 1189 155 
Q 1266 113 1500 113 
L 1500 0 
L 84 0 
L 84 113 
L 147 113 
Q 366 113 442 223 
Q 519 334 519 647 
L 519 1709 
Q 519 2225 495 2337 
Q 472 2450 423 2490 
Q 375 2531 294 2531 
Q 206 2531 84 2484 
L 38 2597 
L 900 2947 
L 1034 2947 
L 1034 2341 
z
" transform="scale(0.015625)"/>
      </defs>
      <use xlink:href="#TimesNewRomanPSMT-53"/>
      <use xlink:href="#TimesNewRomanPSMT-6f" transform="translate(55.615234 0)"/>
      <use xlink:href="#TimesNewRomanPSMT-72" transform="translate(105.615234 0)"/>
      <use xlink:href="#TimesNewRomanPSMT-74" transform="translate(138.916016 0)"/>
      <use xlink:href="#TimesNewRomanPSMT-65" transform="translate(166.699219 0)"/>
      <use xlink:href="#TimesNewRomanPSMT-64" transform="translate(211.083984 0)"/>
      <use xlink:href="#TimesNewRomanPSMT-20" transform="translate(261.083984 0)"/>
      <use xlink:href="#TimesNewRomanPSMT-4f" transform="translate(286.083984 0)"/>
      <use xlink:href="#TimesNewRomanPSMT-62" transform="translate(358.300781 0)"/>
      <use xlink:href="#TimesNewRomanPSMT-73" transform="translate(408.300781 0)"/>
      <use xlink:href="#TimesNewRomanPSMT-65" transform="translate(447.216797 0)"/>
      <use xlink:href="#TimesNewRomanPSMT-72" transform="translate(491.601562 0)"/>
      <use xlink:href="#TimesNewRomanPSMT-76" transform="translate(524.902344 0)"/>
      <use xlink:href="#TimesNewRomanPSMT-61" transform="translate(574.902344 0)"/>
      <use xlink:href="#TimesNewRomanPSMT-74" transform="translate(619.287109 0)"/>
      <use xlink:href="#TimesNewRomanPSMT-69" transform="translate(647.070312 0)"/>
      <use xlink:href="#TimesNewRomanPSMT-6f" transform="translate(674.853516 0)"/>
      <use xlink:href="#TimesNewRomanPSMT-6e" transform="translate(724.853516 0)"/>
      <use xlink:href="#TimesNewRomanPSMT-73" transform="translate(774.853516 0)"/>
     </g>
    </g>
   </g>
   <g id="matplotlib.axis_2">
    <g id="ytick_1">
     <g id="line2d_6">
      <path d="M 65.081563 432.213198 
L 1009.19952 432.213198 
" clip-path="url(#p1a72286b6f)" style="fill: none; stroke-dasharray: 0.8,1.32; stroke-dashoffset: 0; stroke: #b0b0b0; stroke-opacity: 0.6; stroke-width: 0.8"/>
     </g>
     <g id="line2d_7">
      <defs>
       <path id="m2599cdf6b1" d="M 0 0 
L -3.5 0 
" style="stroke: #000000; stroke-width: 0.8"/>
      </defs>
      <g>
       <use xlink:href="#m2599cdf6b1" x="65.081563" y="432.213198" style="stroke: #000000; stroke-width: 0.8"/>
      </g>
     </g>
     <g id="text_7">
      <!-- 0 -->
      <g transform="translate(42.081563 443.323198) scale(0.32 -0.32)">
       <use xlink:href="#TimesNewRomanPSMT-30"/>
      </g>
     </g>
    </g>
    <g id="ytick_2">
     <g id="line2d_8">
      <path d="M 65.081563 295.496902 
L 1009.19952 295.496902 
" clip-path="url(#p1a72286b6f)" style="fill: none; stroke-dasharray: 0.8,1.32; stroke-dashoffset: 0; stroke: #b0b0b0; stroke-opacity: 0.6; stroke-width: 0.8"/>
     </g>
     <g id="line2d_9">
      <g>
       <use xlink:href="#m2599cdf6b1" x="65.081563" y="295.496902" style="stroke: #000000; stroke-width: 0.8"/>
      </g>
     </g>
     <g id="text_8">
      <!-- 2 -->
      <g transform="translate(42.081563 306.606902) scale(0.32 -0.32)">
       <use xlink:href="#TimesNewRomanPSMT-32"/>
      </g>
     </g>
    </g>
    <g id="ytick_3">
     <g id="line2d_10">
      <path d="M 65.081563 158.780606 
L 1009.19952 158.780606 
" clip-path="url(#p1a72286b6f)" style="fill: none; stroke-dasharray: 0.8,1.32; stroke-dashoffset: 0; stroke: #b0b0b0; stroke-opacity: 0.6; stroke-width: 0.8"/>
     </g>
     <g id="line2d_11">
      <g>
       <use xlink:href="#m2599cdf6b1" x="65.081563" y="158.780606" style="stroke: #000000; stroke-width: 0.8"/>
      </g>
     </g>
     <g id="text_9">
      <!-- 4 -->
      <g transform="translate(42.081563 169.890606) scale(0.32 -0.32)">
       <use xlink:href="#TimesNewRomanPSMT-34"/>
      </g>
     </g>
    </g>
    <g id="text_10">
     <!-- COP -->
     <g transform="translate(30.80875 275.275661) rotate(-90) scale(0.34 -0.34)">
      <defs>
       <path id="TimesNewRomanPSMT-43" d="M 3853 4334 
L 3950 2894 
L 3853 2894 
Q 3659 3541 3300 3825 
Q 2941 4109 2438 4109 
Q 2016 4109 1675 3895 
Q 1334 3681 1139 3212 
Q 944 2744 944 2047 
Q 944 1472 1128 1050 
Q 1313 628 1683 403 
Q 2053 178 2528 178 
Q 2941 178 3256 354 
Q 3572 531 3950 1056 
L 4047 994 
Q 3728 428 3303 165 
Q 2878 -97 2294 -97 
Q 1241 -97 663 684 
Q 231 1266 231 2053 
Q 231 2688 515 3219 
Q 800 3750 1298 4042 
Q 1797 4334 2388 4334 
Q 2847 4334 3294 4109 
Q 3425 4041 3481 4041 
Q 3566 4041 3628 4100 
Q 3709 4184 3744 4334 
L 3853 4334 
z
" transform="scale(0.015625)"/>
       <path id="TimesNewRomanPSMT-50" d="M 1313 1984 
L 1313 750 
Q 1313 350 1400 253 
Q 1519 116 1759 116 
L 1922 116 
L 1922 0 
L 106 0 
L 106 116 
L 266 116 
Q 534 116 650 291 
Q 713 388 713 750 
L 713 3488 
Q 713 3888 628 3984 
Q 506 4122 266 4122 
L 106 4122 
L 106 4238 
L 1659 4238 
Q 2228 4238 2556 4120 
Q 2884 4003 3109 3725 
Q 3334 3447 3334 3066 
Q 3334 2547 2992 2222 
Q 2650 1897 2025 1897 
Q 1872 1897 1694 1919 
Q 1516 1941 1313 1984 
z
M 1313 2163 
Q 1478 2131 1606 2115 
Q 1734 2100 1825 2100 
Q 2150 2100 2386 2351 
Q 2622 2603 2622 3003 
Q 2622 3278 2509 3514 
Q 2397 3750 2190 3867 
Q 1984 3984 1722 3984 
Q 1563 3984 1313 3925 
L 1313 2163 
z
" transform="scale(0.015625)"/>
      </defs>
      <use xlink:href="#TimesNewRomanPSMT-43"/>
      <use xlink:href="#TimesNewRomanPSMT-4f" transform="translate(66.699219 0)"/>
      <use xlink:href="#TimesNewRomanPSMT-50" transform="translate(138.916016 0)"/>
     </g>
    </g>
   </g>
   <g id="line2d_12">
    <path d="M 65.081563 55.951215 
L 83.669778 56.634459 
L 84.282577 56.694922 
L 86.325238 56.74024 
L 89.184963 56.850915 
L 98.581204 57.212091 
L 101.236664 57.316062 
L 108.181712 57.586641 
L 112.062768 57.694214 
L 115.739558 57.899945 
L 116.556622 57.95767 
L 131.263782 58.552224 
L 132.693645 58.580196 
L 143.111216 58.79546 
L 144.541079 58.881294 
L 146.379474 58.985845 
L 151.486127 59.219366 
L 158.431174 59.486665 
L 160.678102 59.550721 
L 164.96769 59.661481 
L 180.287648 60.363461 
L 187.02843 60.473046 
L 190.092421 60.613328 
L 195.607606 60.723592 
L 198.875864 60.845496 
L 204.186783 61.008992 
L 205.820912 61.105901 
L 209.906234 61.205946 
L 210.927565 61.258298 
L 212.970226 61.354427 
L 215.421419 61.477221 
L 220.528072 61.590618 
L 224.613394 61.671107 
L 227.881652 61.778468 
L 237.686425 62.081702 
L 243.405876 62.301965 
L 244.22294 62.347795 
L 255.457576 62.649092 
L 258.725834 62.759056 
L 260.155697 62.84024 
L 264.649551 62.952134 
L 268.326341 63.054425 
L 272.820196 63.151936 
L 296.719331 63.65602 
L 297.536395 63.711307 
L 302.847314 63.803359 
L 304.481443 63.880394 
L 311.222224 64.014644 
L 312.039289 64.051328 
L 314.694748 64.129309 
L 315.511813 64.182055 
L 318.575804 64.299611 
L 319.597135 64.391407 
L 340.84081 65.192991 
L 341.657875 65.26065 
L 344.5176 65.485723 
L 351.87118 66.026857 
L 356.977833 66.323453 
L 357.590631 66.392384 
L 359.020494 66.50775 
L 360.246091 66.62514 
L 364.535679 66.979963 
L 365.352743 67.09129 
L 366.374074 67.193558 
L 367.191138 67.259343 
L 368.825267 67.363367 
L 374.95325 67.810063 
L 377.404444 67.927422 
L 396.196926 69.897873 
L 398.443853 70.070644 
L 398.852385 70.189982 
L 400.895046 70.339584 
L 402.529175 70.490744 
L 404.571836 70.687329 
L 407.02303 70.857659 
L 410.69982 71.076386 
L 411.108352 71.156084 
L 411.516884 71.16884 
L 411.925416 71.288023 
L 413.559545 71.415067 
L 413.968077 71.503757 
L 417.236335 71.715803 
L 419.07473 71.811631 
L 419.483262 71.949733 
L 420.708859 72.076836 
L 421.525923 72.150434 
L 423.772851 72.329483 
L 424.385649 72.440087 
L 426.632576 72.805338 
L 427.041108 72.840456 
L 427.449641 72.925177 
L 437.45868 73.595763 
L 438.275744 73.678037 
L 439.092809 73.839132 
L 440.726938 73.987261 
L 446.037856 74.417529 
L 451.348775 74.933229 
L 452.370106 75.059584 
L 455.84263 75.244095 
L 456.659694 75.324681 
L 459.315154 75.509046 
L 460.54075 75.597504 
L 462.379145 75.731855 
L 462.991944 75.810806 
L 463.809008 75.907959 
L 464.421806 75.976723 
L 465.851669 76.079862 
L 472.592451 76.487711 
L 473.818047 76.66002 
L 493.63186 78.001857 
L 498.534247 78.185703 
L 499.351311 78.261605 
L 500.781174 78.357957 
L 502.211037 78.451574 
L 506.909157 78.708566 
L 510.381681 78.913604 
L 512.01581 79.033486 
L 513.241406 79.145806 
L 514.262737 79.200305 
L 518.756591 79.462642 
L 520.594986 79.699209 
L 521.207785 79.759348 
L 521.616317 79.891598 
L 522.229115 79.972799 
L 525.293107 80.15359 
L 526.72297 80.266511 
L 530.604026 80.515088 
L 531.012558 80.626945 
L 532.033889 80.752952 
L 533.872284 80.989241 
L 535.09788 81.109404 
L 539.591735 81.526526 
L 541.43013 81.705917 
L 550.622104 82.57316 
L 551.847701 82.772209 
L 553.073298 82.931939 
L 554.911693 83.269429 
L 555.933023 83.377393 
L 558.384217 83.560788 
L 558.588483 83.572146 
L 558.997015 83.720863 
L 559.814079 83.774501 
L 567.371925 84.713668 
L 567.780458 84.942914 
L 569.006054 85.051075 
L 571.252982 85.341039 
L 571.661514 85.419563 
L 575.338304 85.726468 
L 576.359634 85.854773 
L 583.304682 86.504767 
L 584.326013 86.606892 
L 587.185738 87.010553 
L 587.59427 87.103925 
L 589.024133 87.282881 
L 595.764915 88.134257 
L 597.807576 88.235245 
L 599.441705 88.322796 
L 600.258769 88.38699 
L 601.484366 88.555087 
L 602.097164 88.6963 
L 603.322761 88.796977 
L 604.139825 88.852701 
L 609.65501 89.450975 
L 610.063542 89.54531 
L 611.901937 89.766016 
L 613.740332 90.057995 
L 616.600058 90.254786 
L 617.825654 90.41897 
L 621.910977 90.573174 
L 624.157904 90.813752 
L 624.770702 90.969818 
L 627.221895 91.343119 
L 628.447492 91.451664 
L 629.877355 91.603204 
L 632.73708 92.015027 
L 634.371209 92.156366 
L 636.005338 92.279698 
L 636.41387 92.368259 
L 637.843733 92.649118 
L 638.456531 92.767041 
L 644.584515 93.264485 
L 646.42291 93.427769 
L 648.874103 93.590611 
L 649.895434 93.704095 
L 650.508232 93.801937 
L 651.938095 93.939495 
L 652.959425 94.054985 
L 657.044747 94.524881 
L 657.657546 94.649176 
L 661.334336 95.095114 
L 665.623924 95.732291 
L 666.440988 95.799604 
L 666.849521 95.982964 
L 668.687916 96.107701 
L 670.117778 96.214245 
L 670.730577 96.275108 
L 673.18177 96.417101 
L 675.428697 96.632697 
L 676.245762 96.735997 
L 677.267092 96.769839 
L 679.309753 96.88599 
L 683.190809 97.376626 
L 684.007874 97.466909 
L 684.824938 97.540323 
L 693.199849 98.428312 
L 696.26384 98.602937 
L 697.285171 98.683001 
L 700.757695 98.97028 
L 703.821686 99.35345 
L 705.455815 99.46591 
L 708.111275 99.746426 
L 709.745404 99.989299 
L 710.562468 100.10305 
L 710.971 100.177251 
L 714.034992 100.300295 
L 714.443524 100.393997 
L 715.873387 100.502227 
L 720.571507 100.958525 
L 724.248297 101.248892 
L 724.861096 101.323364 
L 727.925087 101.61245 
L 729.763482 101.835132 
L 730.172015 101.978766 
L 731.397611 102.106422 
L 736.299998 102.686481 
L 738.751191 102.768697 
L 740.793852 103.048996 
L 744.266376 103.367172 
L 746.717569 103.574988 
L 747.126102 103.694743 
L 748.351698 103.833735 
L 755.296746 104.479392 
L 755.705278 104.570576 
L 757.339407 104.707145 
L 758.973536 104.875598 
L 760.607665 104.972687 
L 763.058858 105.212007 
L 765.101519 105.366974 
L 771.433769 106.049268 
L 772.659365 106.164185 
L 774.49776 106.277581 
L 774.906293 106.350101 
L 775.927623 106.45543 
L 779.808679 106.730143 
L 784.915332 107.056476 
L 785.732396 107.132778 
L 790.634783 107.776549 
L 792.88171 107.925819 
L 796.354234 108.323494 
L 797.579831 108.474176 
L 798.805427 108.61508 
L 801.052355 108.800974 
L 801.665153 108.954999 
L 803.91208 109.114503 
L 812.491257 109.972486 
L 814.329652 110.120698 
L 814.533918 110.124245 
L 814.94245 110.281076 
L 833.122134 111.94203 
L 834.34773 112.052729 
L 836.798924 112.149753 
L 837.615988 112.238569 
L 838.228786 112.3823 
L 840.067181 112.62768 
L 842.926907 112.78502 
L 845.3781 112.955571 
L 846.195165 113.037936 
L 847.420761 113.125018 
L 848.03356 113.209225 
L 853.753011 113.628402 
L 857.429801 114.028063 
L 857.838333 114.159494 
L 863.353518 114.70857 
L 864.170582 114.789857 
L 867.43884 114.942987 
L 868.664437 115.065513 
L 870.0943 115.189973 
L 871.319896 115.337411 
L 872.749759 115.446986 
L 880.511871 116.073712 
L 882.350266 116.243684 
L 883.780129 116.39205 
L 886.435588 116.507889 
L 889.295314 116.757846 
L 890.52091 116.899637 
L 893.17637 117.10966 
L 897.87449 117.431256 
L 900.121418 117.59003 
L 900.734216 117.66466 
L 902.572611 117.78675 
L 906.453667 118.043781 
L 908.496328 118.17177 
L 909.926191 118.312646 
L 910.538989 118.398201 
L 912.990182 118.548512 
L 915.441376 118.774883 
L 918.709634 118.920585 
L 963.443912 121.959421 
L 965.282306 122.134698 
L 969.980427 122.59892 
L 971.41029 122.895481 
L 972.840153 123.031978 
L 973.861483 123.161731 
L 975.08708 123.280081 
L 975.904144 123.393944 
L 976.925475 123.613558 
L 978.355337 123.855641 
L 979.376668 124.048746 
L 980.397999 124.446455 
L 981.623595 124.652058 
L 984.074789 125.006121 
L 984.687587 125.145852 
L 985.504651 125.526275 
L 985.913184 125.635902 
L 986.321716 125.726287 
L 986.730248 125.74464 
L 987.13878 126.094824 
L 988.772909 126.539397 
L 989.181441 126.78552 
L 990.202772 127.094557 
L 991.428368 127.717981 
L 992.449699 128.018582 
L 994.288094 128.770347 
L 995.309425 128.967023 
L 995.717957 129.287393 
L 997.14782 129.75361 
L 997.556352 129.943678 
L 997.760618 130.261142 
L 997.964884 130.266091 
L 998.373416 130.462001 
L 998.986215 130.594919 
L 999.599013 130.805525 
L 999.599013 130.805525 
" clip-path="url(#p1a72286b6f)" style="fill: none; stroke: #2b7bba; stroke-width: 3.5; stroke-linecap: square"/>
   </g>
   <g id="line2d_13">
    <path d="M 65.081563 55.941051 
L 75.7034 56.316306 
L 79.175924 56.478059 
L 82.648448 56.589083 
L 97.355608 57.212091 
L 100.623866 57.312138 
L 104.300655 57.47695 
L 114.718227 57.800613 
L 115.331025 57.855261 
L 117.373686 58.00907 
L 120.641944 58.108148 
L 121.867541 58.147746 
L 124.727266 58.330632 
L 129.221121 58.439181 
L 132.897911 58.60173 
L 140.251491 58.709914 
L 149.034933 59.023806 
L 150.464796 59.102088 
L 151.486127 59.180292 
L 155.162917 59.37547 
L 161.2909 59.560446 
L 163.946359 59.638201 
L 164.96769 59.715881 
L 171.708472 59.977487 
L 173.546867 60.132105 
L 176.610858 60.243048 
L 183.147374 60.440429 
L 201.73559 60.972307 
L 203.573985 61.077294 
L 212.357427 61.372398 
L 213.378758 61.410394 
L 216.851282 61.552711 
L 221.549402 61.652176 
L 222.979265 61.685303 
L 227.268853 61.789321 
L 231.762708 62.001645 
L 238.094957 62.100527 
L 240.750417 62.175779 
L 248.103996 62.447945 
L 249.329593 62.49009 
L 293.655339 63.609916 
L 294.676669 63.646802 
L 298.761992 63.757347 
L 310.813692 64.101737 
L 311.42649 64.170422 
L 340.636544 65.535144 
L 341.249342 65.674238 
L 348.398656 66.089895 
L 349.011455 66.165612 
L 355.343704 66.750779 
L 359.22476 67.028347 
L 361.063155 67.24347 
L 362.288752 67.352969 
L 365.352743 67.71091 
L 366.169808 67.810974 
L 367.803937 67.980313 
L 374.544718 68.589047 
L 376.178847 68.666365 
L 376.791645 68.72644 
L 378.425774 68.902064 
L 380.672701 69.24768 
L 381.081234 69.353991 
L 382.511096 69.498301 
L 383.123895 69.612676 
L 385.779354 69.777535 
L 392.724402 70.399415 
L 394.358531 70.508055 
L 394.971329 70.687329 
L 397.422522 70.928356 
L 398.852385 71.06095 
L 400.486514 71.156084 
L 401.712111 71.263456 
L 403.754772 71.432408 
L 404.36757 71.55164 
L 409.474223 72.038565 
L 409.882755 72.132245 
L 411.108352 72.242038 
L 412.129682 72.367859 
L 413.151013 72.444851 
L 413.355279 72.598548 
L 414.172343 72.707524 
L 416.827803 73.021268 
L 418.870464 73.229547 
L 419.483262 73.297484 
L 421.525923 73.465008 
L 422.138722 73.512788 
L 423.772851 73.640017 
L 424.181383 73.794717 
L 424.794181 73.937168 
L 428.062439 74.165966 
L 428.470971 74.40174 
L 431.943495 74.558407 
L 434.598954 74.757561 
L 435.416019 74.843265 
L 441.13547 75.289246 
L 442.1568 75.374179 
L 444.607994 75.589817 
L 447.467719 75.808488 
L 450.327445 76.094959 
L 451.961574 76.205347 
L 455.229831 76.402752 
L 457.681025 76.512548 
L 460.54075 76.674961 
L 463.19621 76.825625 
L 465.647403 76.994645 
L 467.077266 77.077092 
L 467.89433 77.144459 
L 470.141257 77.245359 
L 474.635112 77.558108 
L 477.90337 77.713825 
L 478.9247 77.787823 
L 482.397224 77.998174 
L 486.27828 78.082825 
L 488.116675 78.240737 
L 490.567868 78.398193 
L 492.201997 78.518724 
L 493.427594 78.562488 
L 495.061723 78.700838 
L 496.083053 78.762618 
L 498.534247 78.980099 
L 499.351311 79.052397 
L 504.049432 79.462642 
L 504.457964 79.5665 
L 506.500625 79.691574 
L 507.317689 79.85195 
L 509.564616 79.972799 
L 510.177415 80.103995 
L 512.01581 80.213663 
L 512.628608 80.273706 
L 514.467003 80.418229 
L 515.284068 80.52021 
L 516.509664 80.604457 
L 518.348059 80.706071 
L 519.777922 80.960972 
L 521.003519 81.075786 
L 521.820583 81.211142 
L 523.658978 81.366875 
L 525.497373 81.838054 
L 527.540034 82.063472 
L 528.152832 82.168998 
L 528.765631 82.277693 
L 529.786961 82.406458 
L 530.808292 82.555134 
L 531.829622 82.75715 
L 533.463751 82.911463 
L 533.872284 83.081978 
L 539.183202 83.974745 
L 540.204533 84.118655 
L 541.021597 84.210004 
L 547.966645 85.419563 
L 548.375177 85.530543 
L 550.622104 85.805229 
L 558.384217 87.110896 
L 558.997015 87.190261 
L 561.85674 87.52442 
L 562.265273 87.648302 
L 563.082337 87.756779 
L 563.490869 87.90398 
L 564.716466 88.0118 
L 566.963393 88.17003 
L 569.618853 88.38699 
L 570.027385 88.508347 
L 570.640183 88.573319 
L 571.457248 88.72354 
L 572.88711 88.817516 
L 576.155368 89.179634 
L 576.359634 89.321839 
L 577.380965 89.431775 
L 580.444956 89.951288 
L 580.649223 89.951288 
L 581.057755 90.076552 
L 583.91748 90.286322 
L 586.981472 90.596063 
L 588.819867 90.953373 
L 590.453996 91.050494 
L 592.700923 91.343119 
L 593.722254 91.494059 
L 595.152116 91.704352 
L 596.990511 91.935115 
L 599.033172 92.054001 
L 599.850237 92.161746 
L 615.374461 93.704095 
L 617.212856 93.806938 
L 618.438453 93.912034 
L 620.481114 94.06525 
L 639.477862 95.812107 
L 639.886394 95.9134 
L 642.74612 96.227259 
L 645.401579 96.34385 
L 646.627176 96.495473 
L 647.035708 96.52618 
L 647.44424 96.66751 
L 650.303966 96.831573 
L 656.431949 97.574942 
L 658.883142 97.783948 
L 659.700207 97.867583 
L 660.517271 97.989215 
L 661.334336 98.16847 
L 663.785529 98.510398 
L 664.194061 98.602937 
L 667.053787 99.022106 
L 667.666585 99.130229 
L 669.096448 99.308773 
L 669.50498 99.505313 
L 671.547641 99.746872 
L 673.794568 100.030113 
L 674.407367 100.086397 
L 675.632963 100.186158 
L 676.85856 100.25866 
L 678.288423 100.357762 
L 679.922552 100.546647 
L 681.148148 100.669084 
L 681.556681 100.764583 
L 682.373745 100.885972 
L 683.395076 101.030868 
L 684.416406 101.21081 
L 685.846269 101.328063 
L 686.254801 101.521591 
L 686.663333 101.566788 
L 687.071866 101.725292 
L 690.748655 102.186932 
L 691.361454 102.318542 
L 692.58705 102.422918 
L 695.651042 102.755638 
L 697.080905 102.856185 
L 700.144897 103.266696 
L 702.187558 103.433859 
L 703.821686 103.585375 
L 705.251549 103.735836 
L 705.660081 103.849768 
L 707.907009 104.016006 
L 711.992331 104.327235 
L 714.034992 104.589345 
L 715.260589 104.698707 
L 716.486185 104.836273 
L 717.711782 104.947669 
L 725.67816 105.642103 
L 726.495225 105.718277 
L 728.742152 105.999217 
L 736.095732 106.585615 
L 736.504264 106.705537 
L 738.955457 106.827692 
L 740.998118 107.081463 
L 743.040779 107.187596 
L 744.470642 107.393476 
L 749.781561 107.933657 
L 750.802892 108.01323 
L 751.619956 108.182416 
L 753.049819 108.333147 
L 754.071149 108.403822 
L 755.501012 108.523645 
L 762.241794 109.119476 
L 762.854592 109.227179 
L 764.488721 109.367816 
L 765.305785 109.52247 
L 767.552713 109.688115 
L 768.165511 109.751304 
L 774.089228 110.321658 
L 774.49776 110.444343 
L 779.400147 110.950109 
L 780.012945 111.087345 
L 782.668405 111.251125 
L 783.076937 111.353889 
L 785.119598 111.677452 
L 788.18359 112.009955 
L 789.613452 112.218982 
L 791.656114 112.380489 
L 792.473178 112.488479 
L 794.515839 112.672583 
L 795.128637 112.790252 
L 795.741436 112.864071 
L 796.354234 113.023423 
L 797.579831 113.114409 
L 798.192629 113.220421 
L 807.58887 114.097091 
L 809.018733 114.199726 
L 812.491257 114.391479 
L 817.802176 114.778196 
L 823.113094 115.189973 
L 826.177086 115.427449 
L 827.606949 115.52711 
L 828.219747 115.608027 
L 831.079473 115.781871 
L 833.122134 115.960429 
L 838.228786 116.274364 
L 839.454383 116.359935 
L 841.088512 116.480585 
L 841.905576 116.573312 
L 845.990899 116.841529 
L 847.216495 116.960076 
L 849.871955 117.189952 
L 850.893285 117.330252 
L 854.978607 117.601705 
L 856.204204 117.814355 
L 861.923655 118.219077 
L 862.536453 118.316995 
L 864.783381 118.431029 
L 866.621776 118.570123 
L 873.771089 118.951361 
L 875.200952 119.079565 
L 876.222283 119.20326 
L 877.652146 119.244172 
L 885.209992 119.652369 
L 885.618524 119.740684 
L 887.865451 119.905214 
L 890.316644 120.040807 
L 896.648894 120.347723 
L 898.283023 120.442238 
L 899.508619 120.513172 
L 901.347014 120.61786 
L 902.776877 120.815069 
L 925.246149 122.313799 
L 926.26748 122.449522 
L 929.535737 122.742173 
L 930.148536 122.804772 
L 932.395463 122.933875 
L 933.008261 123.016815 
L 933.416793 123.03219 
L 933.62106 123.223941 
L 934.64239 123.393944 
L 936.072253 123.70159 
L 938.523446 124.001632 
L 939.340511 124.113661 
L 940.566107 124.215171 
L 945.264228 124.817358 
L 945.877026 124.999008 
L 946.694091 125.052293 
L 946.898357 125.295613 
L 947.102623 125.331757 
L 947.306889 125.527691 
L 948.736752 125.741982 
L 949.145284 126.009381 
L 949.962348 126.094824 
L 950.370881 126.247592 
L 950.779413 126.36589 
L 951.392211 126.488718 
L 952.209275 127.031925 
L 953.843404 127.630315 
L 954.456203 127.790299 
L 954.660469 127.830069 
L 954.864735 128.04142 
L 955.273267 128.110901 
L 956.498864 128.634048 
L 957.928727 128.967023 
L 958.950057 129.514323 
L 959.358589 129.545631 
L 959.767122 129.777761 
L 960.788452 130.124954 
L 961.196984 130.198178 
L 962.626847 130.782702 
L 963.239645 130.812069 
L 963.239645 130.812069 
" clip-path="url(#p1a72286b6f)" style="fill: none; stroke: #f52121; stroke-width: 3.5; stroke-linecap: square"/>
   </g>
   <g id="patch_3">
    <path d="M 65.081563 432.213198 
L 65.081563 52.1975 
" style="fill: none; stroke: #000000; stroke-width: 2; stroke-linejoin: miter; stroke-linecap: square"/>
   </g>
   <g id="patch_4">
    <path d="M 1009.19952 432.213198 
L 1009.19952 52.1975 
" style="fill: none; stroke: #000000; stroke-width: 2; stroke-linejoin: miter; stroke-linecap: square"/>
   </g>
   <g id="patch_5">
    <path d="M 65.081563 432.213198 
L 1009.19952 432.213198 
" style="fill: none; stroke: #000000; stroke-width: 2; stroke-linejoin: miter; stroke-linecap: square"/>
   </g>
   <g id="patch_6">
    <path d="M 65.081563 52.1975 
L 1009.19952 52.1975 
" style="fill: none; stroke: #000000; stroke-width: 2; stroke-linejoin: miter; stroke-linecap: square"/>
   </g>
   <g id="text_11">
    <!-- COP Pareto Curve -->
    <g transform="translate(403.825229 32.1975) scale(0.36 -0.36)">
     <defs>
      <path id="TimesNewRomanPSMT-75" d="M 2709 2863 
L 2709 1128 
Q 2709 631 2732 520 
Q 2756 409 2807 365 
Q 2859 322 2928 322 
Q 3025 322 3147 375 
L 3191 266 
L 2334 -88 
L 2194 -88 
L 2194 519 
Q 1825 119 1631 15 
Q 1438 -88 1222 -88 
Q 981 -88 804 51 
Q 628 191 559 409 
Q 491 628 491 1028 
L 491 2306 
Q 491 2509 447 2587 
Q 403 2666 317 2708 
Q 231 2750 6 2747 
L 6 2863 
L 1009 2863 
L 1009 947 
Q 1009 547 1148 422 
Q 1288 297 1484 297 
Q 1619 297 1789 381 
Q 1959 466 2194 703 
L 2194 2325 
Q 2194 2569 2105 2655 
Q 2016 2741 1734 2747 
L 1734 2863 
L 2709 2863 
z
" transform="scale(0.015625)"/>
     </defs>
     <use xlink:href="#TimesNewRomanPSMT-43"/>
     <use xlink:href="#TimesNewRomanPSMT-4f" transform="translate(66.699219 0)"/>
     <use xlink:href="#TimesNewRomanPSMT-50" transform="translate(138.916016 0)"/>
     <use xlink:href="#TimesNewRomanPSMT-20" transform="translate(190.78125 0)"/>
     <use xlink:href="#TimesNewRomanPSMT-50" transform="translate(215.78125 0)"/>
     <use xlink:href="#TimesNewRomanPSMT-61" transform="translate(271.396484 0)"/>
     <use xlink:href="#TimesNewRomanPSMT-72" transform="translate(315.78125 0)"/>
     <use xlink:href="#TimesNewRomanPSMT-65" transform="translate(349.082031 0)"/>
     <use xlink:href="#TimesNewRomanPSMT-74" transform="translate(393.466797 0)"/>
     <use xlink:href="#TimesNewRomanPSMT-6f" transform="translate(421.25 0)"/>
     <use xlink:href="#TimesNewRomanPSMT-20" transform="translate(471.25 0)"/>
     <use xlink:href="#TimesNewRomanPSMT-43" transform="translate(496.25 0)"/>
     <use xlink:href="#TimesNewRomanPSMT-75" transform="translate(562.949219 0)"/>
     <use xlink:href="#TimesNewRomanPSMT-72" transform="translate(612.949219 0)"/>
     <use xlink:href="#TimesNewRomanPSMT-76" transform="translate(646.25 0)"/>
     <use xlink:href="#TimesNewRomanPSMT-65" transform="translate(696.25 0)"/>
    </g>
   </g>
   <g id="legend_1">
    <g id="line2d_14">
     <path d="M 93.881563 340.063198 
L 125.881563 340.063198 
L 157.881563 340.063198 
" style="fill: none; stroke: #2b7bba; stroke-width: 3.5; stroke-linecap: square"/>
    </g>
    <g id="text_12">
     <!-- Shifted Load -->
     <g transform="translate(183.481562 351.263198) scale(0.32 -0.32)">
      <defs>
       <path id="TimesNewRomanPSMT-68" d="M 1041 4444 
L 1041 2350 
Q 1388 2731 1591 2839 
Q 1794 2947 1997 2947 
Q 2241 2947 2416 2812 
Q 2591 2678 2675 2391 
Q 2734 2191 2734 1659 
L 2734 647 
Q 2734 375 2778 275 
Q 2809 200 2884 156 
Q 2959 113 3159 113 
L 3159 0 
L 1753 0 
L 1753 113 
L 1819 113 
Q 2019 113 2097 173 
Q 2175 234 2206 353 
Q 2216 403 2216 647 
L 2216 1659 
Q 2216 2128 2167 2275 
Q 2119 2422 2012 2495 
Q 1906 2569 1756 2569 
Q 1603 2569 1437 2487 
Q 1272 2406 1041 2159 
L 1041 647 
Q 1041 353 1073 281 
Q 1106 209 1195 161 
Q 1284 113 1503 113 
L 1503 0 
L 84 0 
L 84 113 
Q 275 113 384 172 
Q 447 203 484 290 
Q 522 378 522 647 
L 522 3238 
Q 522 3728 498 3840 
Q 475 3953 426 3993 
Q 378 4034 297 4034 
Q 231 4034 84 3984 
L 41 4094 
L 897 4444 
L 1041 4444 
z
" transform="scale(0.015625)"/>
       <path id="TimesNewRomanPSMT-66" d="M 1319 2638 
L 1319 756 
Q 1319 356 1406 250 
Q 1522 113 1716 113 
L 1975 113 
L 1975 0 
L 266 0 
L 266 113 
L 394 113 
Q 519 113 622 175 
Q 725 238 764 344 
Q 803 450 803 756 
L 803 2638 
L 247 2638 
L 247 2863 
L 803 2863 
L 803 3050 
Q 803 3478 940 3775 
Q 1078 4072 1361 4255 
Q 1644 4438 1997 4438 
Q 2325 4438 2600 4225 
Q 2781 4084 2781 3909 
Q 2781 3816 2700 3733 
Q 2619 3650 2525 3650 
Q 2453 3650 2373 3701 
Q 2294 3753 2178 3923 
Q 2063 4094 1966 4153 
Q 1869 4213 1750 4213 
Q 1606 4213 1506 4136 
Q 1406 4059 1362 3898 
Q 1319 3738 1319 3069 
L 1319 2863 
L 2056 2863 
L 2056 2638 
L 1319 2638 
z
" transform="scale(0.015625)"/>
       <path id="TimesNewRomanPSMT-4c" d="M 3669 1172 
L 3772 1150 
L 3409 0 
L 128 0 
L 128 116 
L 288 116 
Q 556 116 672 291 
Q 738 391 738 753 
L 738 3488 
Q 738 3884 650 3984 
Q 528 4122 288 4122 
L 128 4122 
L 128 4238 
L 2047 4238 
L 2047 4122 
Q 1709 4125 1573 4059 
Q 1438 3994 1388 3894 
Q 1338 3794 1338 3416 
L 1338 753 
Q 1338 494 1388 397 
Q 1425 331 1503 300 
Q 1581 269 1991 269 
L 2300 269 
Q 2788 269 2984 341 
Q 3181 413 3343 595 
Q 3506 778 3669 1172 
z
" transform="scale(0.015625)"/>
      </defs>
      <use xlink:href="#TimesNewRomanPSMT-53"/>
      <use xlink:href="#TimesNewRomanPSMT-68" transform="translate(55.615234 0)"/>
      <use xlink:href="#TimesNewRomanPSMT-69" transform="translate(105.615234 0)"/>
      <use xlink:href="#TimesNewRomanPSMT-66" transform="translate(133.398438 0)"/>
      <use xlink:href="#TimesNewRomanPSMT-74" transform="translate(166.699219 0)"/>
      <use xlink:href="#TimesNewRomanPSMT-65" transform="translate(194.482422 0)"/>
      <use xlink:href="#TimesNewRomanPSMT-64" transform="translate(238.867188 0)"/>
      <use xlink:href="#TimesNewRomanPSMT-20" transform="translate(288.867188 0)"/>
      <use xlink:href="#TimesNewRomanPSMT-4c" transform="translate(313.867188 0)"/>
      <use xlink:href="#TimesNewRomanPSMT-6f" transform="translate(374.951172 0)"/>
      <use xlink:href="#TimesNewRomanPSMT-61" transform="translate(424.951172 0)"/>
      <use xlink:href="#TimesNewRomanPSMT-64" transform="translate(469.335938 0)"/>
     </g>
    </g>
    <g id="line2d_15">
     <path d="M 93.881563 385.308198 
L 125.881563 385.308198 
L 157.881563 385.308198 
" style="fill: none; stroke: #f52121; stroke-width: 3.5; stroke-linecap: square"/>
    </g>
    <g id="text_13">
     <!-- Original Load -->
     <g transform="translate(183.481562 396.508198) scale(0.32 -0.32)">
      <defs>
       <path id="TimesNewRomanPSMT-67" d="M 966 1044 
Q 703 1172 562 1401 
Q 422 1631 422 1909 
Q 422 2334 742 2640 
Q 1063 2947 1563 2947 
Q 1972 2947 2272 2747 
L 2878 2747 
Q 3013 2747 3034 2739 
Q 3056 2731 3066 2713 
Q 3084 2684 3084 2613 
Q 3084 2531 3069 2500 
Q 3059 2484 3036 2475 
Q 3013 2466 2878 2466 
L 2506 2466 
Q 2681 2241 2681 1891 
Q 2681 1491 2375 1206 
Q 2069 922 1553 922 
Q 1341 922 1119 984 
Q 981 866 932 777 
Q 884 688 884 625 
Q 884 572 936 522 
Q 988 472 1138 450 
Q 1225 438 1575 428 
Q 2219 413 2409 384 
Q 2700 344 2873 169 
Q 3047 -6 3047 -263 
Q 3047 -616 2716 -925 
Q 2228 -1381 1444 -1381 
Q 841 -1381 425 -1109 
Q 191 -953 191 -784 
Q 191 -709 225 -634 
Q 278 -519 444 -313 
Q 466 -284 763 25 
Q 600 122 533 198 
Q 466 275 466 372 
Q 466 481 555 628 
Q 644 775 966 1044 
z
M 1509 2797 
Q 1278 2797 1122 2612 
Q 966 2428 966 2047 
Q 966 1553 1178 1281 
Q 1341 1075 1591 1075 
Q 1828 1075 1981 1253 
Q 2134 1431 2134 1813 
Q 2134 2309 1919 2591 
Q 1759 2797 1509 2797 
z
M 934 0 
Q 788 -159 713 -296 
Q 638 -434 638 -550 
Q 638 -700 819 -813 
Q 1131 -1006 1722 -1006 
Q 2284 -1006 2551 -807 
Q 2819 -609 2819 -384 
Q 2819 -222 2659 -153 
Q 2497 -84 2016 -72 
Q 1313 -53 934 0 
z
" transform="scale(0.015625)"/>
       <path id="TimesNewRomanPSMT-6c" d="M 1184 4444 
L 1184 647 
Q 1184 378 1223 290 
Q 1263 203 1344 158 
Q 1425 113 1647 113 
L 1647 0 
L 244 0 
L 244 113 
Q 441 113 512 153 
Q 584 194 625 287 
Q 666 381 666 647 
L 666 3247 
Q 666 3731 644 3842 
Q 622 3953 573 3993 
Q 525 4034 450 4034 
Q 369 4034 244 3984 
L 191 4094 
L 1044 4444 
L 1184 4444 
z
" transform="scale(0.015625)"/>
      </defs>
      <use xlink:href="#TimesNewRomanPSMT-4f"/>
      <use xlink:href="#TimesNewRomanPSMT-72" transform="translate(72.216797 0)"/>
      <use xlink:href="#TimesNewRomanPSMT-69" transform="translate(105.517578 0)"/>
      <use xlink:href="#TimesNewRomanPSMT-67" transform="translate(133.300781 0)"/>
      <use xlink:href="#TimesNewRomanPSMT-69" transform="translate(183.300781 0)"/>
      <use xlink:href="#TimesNewRomanPSMT-6e" transform="translate(211.083984 0)"/>
      <use xlink:href="#TimesNewRomanPSMT-61" transform="translate(261.083984 0)"/>
      <use xlink:href="#TimesNewRomanPSMT-6c" transform="translate(305.46875 0)"/>
      <use xlink:href="#TimesNewRomanPSMT-20" transform="translate(333.251953 0)"/>
      <use xlink:href="#TimesNewRomanPSMT-4c" transform="translate(358.251953 0)"/>
      <use xlink:href="#TimesNewRomanPSMT-6f" transform="translate(419.335938 0)"/>
      <use xlink:href="#TimesNewRomanPSMT-61" transform="translate(469.335938 0)"/>
      <use xlink:href="#TimesNewRomanPSMT-64" transform="translate(513.720703 0)"/>
     </g>
    </g>
   </g>
  </g>
  <g id="axes_2">
   <g id="patch_7">
    <path d="M 65.081563 938.252957 
L 1009.19952 938.252957 
L 1009.19952 558.23726 
L 65.081563 558.23726 
z
" style="fill: #ffffff"/>
   </g>
   <g id="matplotlib.axis_3">
    <g id="xtick_6">
     <g id="line2d_16">
      <g>
       <use xlink:href="#me66eea6545" x="107.996015" y="938.252957" style="stroke: #000000; stroke-width: 0.8"/>
      </g>
     </g>
     <g id="text_14">
      <!-- 0 -->
      <g transform="translate(99.996015 967.472957) scale(0.32 -0.32)">
       <use xlink:href="#TimesNewRomanPSMT-30"/>
      </g>
     </g>
    </g>
    <g id="xtick_7">
     <g id="line2d_17">
      <g>
       <use xlink:href="#me66eea6545" x="276.287986" y="938.252957" style="stroke: #000000; stroke-width: 0.8"/>
      </g>
     </g>
     <g id="text_15">
      <!-- 10 -->
      <g transform="translate(260.287986 967.472957) scale(0.32 -0.32)">
       <use xlink:href="#TimesNewRomanPSMT-31"/>
       <use xlink:href="#TimesNewRomanPSMT-30" transform="translate(50 0)"/>
      </g>
     </g>
    </g>
    <g id="xtick_8">
     <g id="line2d_18">
      <g>
       <use xlink:href="#me66eea6545" x="444.579957" y="938.252957" style="stroke: #000000; stroke-width: 0.8"/>
      </g>
     </g>
     <g id="text_16">
      <!-- 20 -->
      <g transform="translate(428.579957 967.472957) scale(0.32 -0.32)">
       <use xlink:href="#TimesNewRomanPSMT-32"/>
       <use xlink:href="#TimesNewRomanPSMT-30" transform="translate(50 0)"/>
      </g>
     </g>
    </g>
    <g id="xtick_9">
     <g id="line2d_19">
      <g>
       <use xlink:href="#me66eea6545" x="612.871928" y="938.252957" style="stroke: #000000; stroke-width: 0.8"/>
      </g>
     </g>
     <g id="text_17">
      <!-- 30 -->
      <g transform="translate(596.871928 967.472957) scale(0.32 -0.32)">
       <use xlink:href="#TimesNewRomanPSMT-33"/>
       <use xlink:href="#TimesNewRomanPSMT-30" transform="translate(50 0)"/>
      </g>
     </g>
    </g>
    <g id="xtick_10">
     <g id="line2d_20">
      <g>
       <use xlink:href="#me66eea6545" x="781.163899" y="938.252957" style="stroke: #000000; stroke-width: 0.8"/>
      </g>
     </g>
     <g id="text_18">
      <!-- 40 -->
      <g transform="translate(765.163899 967.472957) scale(0.32 -0.32)">
       <use xlink:href="#TimesNewRomanPSMT-34"/>
       <use xlink:href="#TimesNewRomanPSMT-30" transform="translate(50 0)"/>
      </g>
     </g>
    </g>
    <g id="xtick_11">
     <g id="line2d_21">
      <g>
       <use xlink:href="#me66eea6545" x="949.45587" y="938.252957" style="stroke: #000000; stroke-width: 0.8"/>
      </g>
     </g>
     <g id="text_19">
      <!-- 50 -->
      <g transform="translate(933.45587 967.472957) scale(0.32 -0.32)">
       <defs>
        <path id="TimesNewRomanPSMT-35" d="M 2778 4238 
L 2534 3706 
L 1259 3706 
L 981 3138 
Q 1809 3016 2294 2522 
Q 2709 2097 2709 1522 
Q 2709 1188 2573 903 
Q 2438 619 2231 419 
Q 2025 219 1772 97 
Q 1413 -75 1034 -75 
Q 653 -75 479 54 
Q 306 184 306 341 
Q 306 428 378 495 
Q 450 563 559 563 
Q 641 563 702 538 
Q 763 513 909 409 
Q 1144 247 1384 247 
Q 1750 247 2026 523 
Q 2303 800 2303 1197 
Q 2303 1581 2056 1914 
Q 1809 2247 1375 2428 
Q 1034 2569 447 2591 
L 1259 4238 
L 2778 4238 
z
" transform="scale(0.015625)"/>
       </defs>
       <use xlink:href="#TimesNewRomanPSMT-35"/>
       <use xlink:href="#TimesNewRomanPSMT-30" transform="translate(50 0)"/>
      </g>
     </g>
    </g>
    <g id="text_20">
     <!-- Week Number -->
     <g transform="translate(438.904447 1001.926707) scale(0.34 -0.34)">
      <defs>
       <path id="TimesNewRomanPSMT-57" d="M 5991 4238 
L 5991 4122 
Q 5825 4122 5722 4062 
Q 5619 4003 5525 3841 
Q 5463 3731 5328 3319 
L 4147 -97 
L 4022 -97 
L 3056 2613 
L 2097 -97 
L 1984 -97 
L 725 3422 
Q 584 3816 547 3888 
Q 484 4006 376 4064 
Q 269 4122 84 4122 
L 84 4238 
L 1653 4238 
L 1653 4122 
L 1578 4122 
Q 1413 4122 1325 4047 
Q 1238 3972 1238 3866 
Q 1238 3756 1375 3363 
L 2209 984 
L 2913 3006 
L 2788 3363 
L 2688 3647 
Q 2622 3803 2541 3922 
Q 2500 3981 2441 4022 
Q 2363 4078 2284 4103 
Q 2225 4122 2097 4122 
L 2097 4238 
L 3747 4238 
L 3747 4122 
L 3634 4122 
Q 3459 4122 3378 4047 
Q 3297 3972 3297 3844 
Q 3297 3684 3438 3288 
L 4250 984 
L 5056 3319 
Q 5194 3706 5194 3856 
Q 5194 3928 5148 3990 
Q 5103 4053 5034 4078 
Q 4916 4122 4725 4122 
L 4725 4238 
L 5991 4238 
z
" transform="scale(0.015625)"/>
       <path id="TimesNewRomanPSMT-6b" d="M 1047 4444 
L 1047 1597 
L 1775 2259 
Q 2006 2472 2044 2528 
Q 2069 2566 2069 2603 
Q 2069 2666 2017 2711 
Q 1966 2756 1847 2763 
L 1847 2863 
L 3091 2863 
L 3091 2763 
Q 2834 2756 2664 2684 
Q 2494 2613 2291 2428 
L 1556 1750 
L 2291 822 
Q 2597 438 2703 334 
Q 2853 188 2966 144 
Q 3044 113 3238 113 
L 3238 0 
L 1847 0 
L 1847 113 
Q 1966 116 2008 148 
Q 2050 181 2050 241 
Q 2050 313 1925 472 
L 1047 1594 
L 1047 644 
Q 1047 366 1086 278 
Q 1125 191 1197 153 
Q 1269 116 1509 113 
L 1509 0 
L 53 0 
L 53 113 
Q 272 113 381 166 
Q 447 200 481 272 
Q 528 375 528 628 
L 528 3234 
Q 528 3731 506 3842 
Q 484 3953 434 3995 
Q 384 4038 303 4038 
Q 238 4038 106 3984 
L 53 4094 
L 903 4444 
L 1047 4444 
z
" transform="scale(0.015625)"/>
       <path id="TimesNewRomanPSMT-4e" d="M -84 4238 
L 1066 4238 
L 3656 1059 
L 3656 3503 
Q 3656 3894 3569 3991 
Q 3453 4122 3203 4122 
L 3056 4122 
L 3056 4238 
L 4531 4238 
L 4531 4122 
L 4381 4122 
Q 4113 4122 4000 3959 
Q 3931 3859 3931 3503 
L 3931 -69 
L 3819 -69 
L 1025 3344 
L 1025 734 
Q 1025 344 1109 247 
Q 1228 116 1475 116 
L 1625 116 
L 1625 0 
L 150 0 
L 150 116 
L 297 116 
Q 569 116 681 278 
Q 750 378 750 734 
L 750 3681 
Q 566 3897 470 3965 
Q 375 4034 191 4094 
Q 100 4122 -84 4122 
L -84 4238 
z
" transform="scale(0.015625)"/>
       <path id="TimesNewRomanPSMT-6d" d="M 1050 2338 
Q 1363 2650 1419 2697 
Q 1559 2816 1721 2881 
Q 1884 2947 2044 2947 
Q 2313 2947 2506 2790 
Q 2700 2634 2766 2338 
Q 3088 2713 3309 2830 
Q 3531 2947 3766 2947 
Q 3994 2947 4170 2830 
Q 4347 2713 4450 2447 
Q 4519 2266 4519 1878 
L 4519 647 
Q 4519 378 4559 278 
Q 4591 209 4675 161 
Q 4759 113 4950 113 
L 4950 0 
L 3538 0 
L 3538 113 
L 3597 113 
Q 3781 113 3884 184 
Q 3956 234 3988 344 
Q 4000 397 4000 647 
L 4000 1878 
Q 4000 2228 3916 2372 
Q 3794 2572 3525 2572 
Q 3359 2572 3192 2489 
Q 3025 2406 2788 2181 
L 2781 2147 
L 2788 2013 
L 2788 647 
Q 2788 353 2820 281 
Q 2853 209 2943 161 
Q 3034 113 3253 113 
L 3253 0 
L 1806 0 
L 1806 113 
Q 2044 113 2133 169 
Q 2222 225 2256 338 
Q 2272 391 2272 647 
L 2272 1878 
Q 2272 2228 2169 2381 
Q 2031 2581 1784 2581 
Q 1616 2581 1450 2491 
Q 1191 2353 1050 2181 
L 1050 647 
Q 1050 366 1089 281 
Q 1128 197 1204 155 
Q 1281 113 1516 113 
L 1516 0 
L 100 0 
L 100 113 
Q 297 113 375 155 
Q 453 197 493 289 
Q 534 381 534 647 
L 534 1741 
Q 534 2213 506 2350 
Q 484 2453 437 2492 
Q 391 2531 309 2531 
Q 222 2531 100 2484 
L 53 2597 
L 916 2947 
L 1050 2947 
L 1050 2338 
z
" transform="scale(0.015625)"/>
      </defs>
      <use xlink:href="#TimesNewRomanPSMT-57"/>
      <use xlink:href="#TimesNewRomanPSMT-65" transform="translate(86.384766 0)"/>
      <use xlink:href="#TimesNewRomanPSMT-65" transform="translate(130.769531 0)"/>
      <use xlink:href="#TimesNewRomanPSMT-6b" transform="translate(175.154297 0)"/>
      <use xlink:href="#TimesNewRomanPSMT-20" transform="translate(225.154297 0)"/>
      <use xlink:href="#TimesNewRomanPSMT-4e" transform="translate(250.154297 0)"/>
      <use xlink:href="#TimesNewRomanPSMT-75" transform="translate(322.371094 0)"/>
      <use xlink:href="#TimesNewRomanPSMT-6d" transform="translate(372.371094 0)"/>
      <use xlink:href="#TimesNewRomanPSMT-62" transform="translate(450.154297 0)"/>
      <use xlink:href="#TimesNewRomanPSMT-65" transform="translate(500.154297 0)"/>
      <use xlink:href="#TimesNewRomanPSMT-72" transform="translate(544.539062 0)"/>
     </g>
    </g>
   </g>
   <g id="matplotlib.axis_4">
    <g id="ytick_4">
     <g id="line2d_22">
      <path d="M 65.081563 938.252957 
L 1009.19952 938.252957 
" clip-path="url(#p8fc71f3c3e)" style="fill: none; stroke-dasharray: 0.8,1.32; stroke-dashoffset: 0; stroke: #b0b0b0; stroke-opacity: 0.6; stroke-width: 0.8"/>
     </g>
     <g id="line2d_23">
      <g>
       <use xlink:href="#m2599cdf6b1" x="65.081563" y="938.252957" style="stroke: #000000; stroke-width: 0.8"/>
      </g>
     </g>
     <g id="text_21">
      <!-- 0 -->
      <g transform="translate(42.081563 949.362957) scale(0.32 -0.32)">
       <use xlink:href="#TimesNewRomanPSMT-30"/>
      </g>
     </g>
    </g>
    <g id="ytick_5">
     <g id="line2d_24">
      <path d="M 65.081563 799.276576 
L 1009.19952 799.276576 
" clip-path="url(#p8fc71f3c3e)" style="fill: none; stroke-dasharray: 0.8,1.32; stroke-dashoffset: 0; stroke: #b0b0b0; stroke-opacity: 0.6; stroke-width: 0.8"/>
     </g>
     <g id="line2d_25">
      <g>
       <use xlink:href="#m2599cdf6b1" x="65.081563" y="799.276576" style="stroke: #000000; stroke-width: 0.8"/>
      </g>
     </g>
     <g id="text_22">
      <!-- 2 -->
      <g transform="translate(42.081563 810.386576) scale(0.32 -0.32)">
       <use xlink:href="#TimesNewRomanPSMT-32"/>
      </g>
     </g>
    </g>
    <g id="ytick_6">
     <g id="line2d_26">
      <path d="M 65.081563 660.300194 
L 1009.19952 660.300194 
" clip-path="url(#p8fc71f3c3e)" style="fill: none; stroke-dasharray: 0.8,1.32; stroke-dashoffset: 0; stroke: #b0b0b0; stroke-opacity: 0.6; stroke-width: 0.8"/>
     </g>
     <g id="line2d_27">
      <g>
       <use xlink:href="#m2599cdf6b1" x="65.081563" y="660.300194" style="stroke: #000000; stroke-width: 0.8"/>
      </g>
     </g>
     <g id="text_23">
      <!-- 4 -->
      <g transform="translate(42.081563 671.410194) scale(0.32 -0.32)">
       <use xlink:href="#TimesNewRomanPSMT-34"/>
      </g>
     </g>
    </g>
    <g id="text_24">
     <!-- COP -->
     <g transform="translate(30.80875 781.315421) rotate(-90) scale(0.34 -0.34)">
      <use xlink:href="#TimesNewRomanPSMT-43"/>
      <use xlink:href="#TimesNewRomanPSMT-4f" transform="translate(66.699219 0)"/>
      <use xlink:href="#TimesNewRomanPSMT-50" transform="translate(138.916016 0)"/>
     </g>
    </g>
   </g>
   <g id="line2d_28">
    <path d="M 107.996015 574.273288 
L 124.825212 561.5049 
L 141.654409 562.114657 
L 158.483606 563.592297 
L 175.312804 561.38281 
L 192.142001 562.220119 
L 208.971198 571.45216 
L 225.800395 562.081461 
L 242.629592 579.59391 
L 259.458789 574.817976 
L 276.287986 586.488802 
L 293.117183 591.76624 
L 309.94638 593.237377 
L 326.775577 589.184293 
L 343.604775 601.046529 
L 360.433972 590.01633 
L 377.263169 591.605136 
L 394.092366 595.613044 
L 410.921563 597.654422 
L 427.75076 603.328339 
L 444.579957 598.43987 
L 461.409154 601.584803 
L 478.238351 602.030015 
L 495.067548 591.692204 
L 511.896746 587.500189 
L 528.725943 586.443502 
L 545.55514 590.571323 
L 562.384337 588.840331 
L 579.213534 593.686079 
L 596.042731 593.554514 
L 612.871928 586.205492 
L 629.701125 577.869268 
L 646.530322 581.525956 
L 663.35952 576.823571 
L 680.188717 575.162864 
L 697.017914 569.87146 
L 713.847111 560.805551 
L 730.676308 560.812649 
L 747.505505 573.499842 
L 764.334702 568.629934 
L 781.163899 581.380403 
L 797.993096 594.115894 
L 814.822293 604.147663 
L 831.651491 608.365532 
L 848.480688 594.938897 
L 865.309885 597.80962 
L 882.139082 585.304708 
L 898.968279 567.508647 
L 915.797476 570.273941 
L 932.626673 577.976191 
L 949.45587 570.112114 
L 966.285067 570.240629 
" clip-path="url(#p8fc71f3c3e)" style="fill: none; stroke: #2b7bba; stroke-width: 3.5; stroke-linecap: square"/>
   </g>
   <g id="line2d_29">
    <path d="M 107.996015 575.015423 
L 124.825212 561.901504 
L 141.654409 562.300391 
L 158.483606 564.693473 
L 175.312804 561.961407 
L 192.142001 563.144338 
L 208.971198 572.787788 
L 225.800395 562.193394 
L 242.629592 580.558633 
L 259.458789 575.209538 
L 276.287986 586.554937 
L 293.117183 591.758755 
L 309.94638 593.980633 
L 326.775577 589.262115 
L 343.604775 601.586869 
L 360.433972 589.350493 
L 377.263169 593.031542 
L 394.092366 595.800474 
L 410.921563 599.009107 
L 427.75076 604.358404 
L 444.579957 598.997622 
L 461.409154 601.298228 
L 478.238351 603.372531 
L 495.067548 592.295866 
L 511.896746 588.133814 
L 528.725943 586.671211 
L 545.55514 591.033985 
L 562.384337 590.204064 
L 579.213534 595.215034 
L 596.042731 594.817372 
L 612.871928 587.223877 
L 629.701125 578.743811 
L 646.530322 580.782433 
L 663.35952 576.489515 
L 680.188717 575.275622 
L 697.017914 570.146383 
L 713.847111 561.373132 
L 730.676308 561.321193 
L 747.505505 572.944312 
L 764.334702 569.239015 
L 781.163899 581.464918 
L 797.993096 595.823675 
L 814.822293 606.212429 
L 831.651491 612.171375 
L 848.480688 596.750822 
L 865.309885 599.436196 
L 882.139082 586.974059 
L 898.968279 568.250335 
L 915.797476 571.216783 
L 932.626673 579.122173 
L 949.45587 571.031086 
L 966.285067 570.980046 
" clip-path="url(#p8fc71f3c3e)" style="fill: none; stroke: #f52121; stroke-width: 3.5; stroke-linecap: square"/>
   </g>
   <g id="patch_8">
    <path d="M 65.081563 938.252957 
L 65.081563 558.23726 
" style="fill: none; stroke: #000000; stroke-width: 2; stroke-linejoin: miter; stroke-linecap: square"/>
   </g>
   <g id="patch_9">
    <path d="M 1009.19952 938.252957 
L 1009.19952 558.23726 
" style="fill: none; stroke: #000000; stroke-width: 2; stroke-linejoin: miter; stroke-linecap: square"/>
   </g>
   <g id="patch_10">
    <path d="M 65.081563 938.252957 
L 1009.19952 938.252957 
" style="fill: none; stroke: #000000; stroke-width: 2; stroke-linejoin: miter; stroke-linecap: square"/>
   </g>
   <g id="patch_11">
    <path d="M 65.081563 558.23726 
L 1009.19952 558.23726 
" style="fill: none; stroke: #000000; stroke-width: 2; stroke-linejoin: miter; stroke-linecap: square"/>
   </g>
   <g id="text_25">
    <!-- COP Weekly Average -->
    <g transform="translate(380.937104 538.23726) scale(0.36 -0.36)">
     <defs>
      <path id="TimesNewRomanPSMT-79" d="M 38 2863 
L 1372 2863 
L 1372 2747 
L 1306 2747 
Q 1166 2747 1095 2686 
Q 1025 2625 1025 2534 
Q 1025 2413 1128 2197 
L 1825 753 
L 2466 2334 
Q 2519 2463 2519 2588 
Q 2519 2644 2497 2672 
Q 2472 2706 2419 2726 
Q 2366 2747 2231 2747 
L 2231 2863 
L 3163 2863 
L 3163 2747 
Q 3047 2734 2984 2696 
Q 2922 2659 2847 2556 
Q 2819 2513 2741 2316 
L 1575 -541 
Q 1406 -956 1132 -1168 
Q 859 -1381 606 -1381 
Q 422 -1381 303 -1275 
Q 184 -1169 184 -1031 
Q 184 -900 270 -820 
Q 356 -741 506 -741 
Q 609 -741 788 -809 
Q 913 -856 944 -856 
Q 1038 -856 1148 -759 
Q 1259 -663 1372 -384 
L 1575 113 
L 547 2272 
Q 500 2369 397 2513 
Q 319 2622 269 2659 
Q 197 2709 38 2747 
L 38 2863 
z
" transform="scale(0.015625)"/>
      <path id="TimesNewRomanPSMT-41" d="M 2928 1419 
L 1288 1419 
L 1000 750 
Q 894 503 894 381 
Q 894 284 986 211 
Q 1078 138 1384 116 
L 1384 0 
L 50 0 
L 50 116 
Q 316 163 394 238 
Q 553 388 747 847 
L 2238 4334 
L 2347 4334 
L 3822 809 
Q 4000 384 4145 257 
Q 4291 131 4550 116 
L 4550 0 
L 2878 0 
L 2878 116 
Q 3131 128 3220 200 
Q 3309 272 3309 375 
Q 3309 513 3184 809 
L 2928 1419 
z
M 2841 1650 
L 2122 3363 
L 1384 1650 
L 2841 1650 
z
" transform="scale(0.015625)"/>
     </defs>
     <use xlink:href="#TimesNewRomanPSMT-43"/>
     <use xlink:href="#TimesNewRomanPSMT-4f" transform="translate(66.699219 0)"/>
     <use xlink:href="#TimesNewRomanPSMT-50" transform="translate(138.916016 0)"/>
     <use xlink:href="#TimesNewRomanPSMT-20" transform="translate(190.78125 0)"/>
     <use xlink:href="#TimesNewRomanPSMT-57" transform="translate(214.03125 0)"/>
     <use xlink:href="#TimesNewRomanPSMT-65" transform="translate(300.416016 0)"/>
     <use xlink:href="#TimesNewRomanPSMT-65" transform="translate(344.800781 0)"/>
     <use xlink:href="#TimesNewRomanPSMT-6b" transform="translate(389.185547 0)"/>
     <use xlink:href="#TimesNewRomanPSMT-6c" transform="translate(439.185547 0)"/>
     <use xlink:href="#TimesNewRomanPSMT-79" transform="translate(466.96875 0)"/>
     <use xlink:href="#TimesNewRomanPSMT-20" transform="translate(516.96875 0)"/>
     <use xlink:href="#TimesNewRomanPSMT-41" transform="translate(536.46875 0)"/>
     <use xlink:href="#TimesNewRomanPSMT-76" transform="translate(601.310547 0)"/>
     <use xlink:href="#TimesNewRomanPSMT-65" transform="translate(651.310547 0)"/>
     <use xlink:href="#TimesNewRomanPSMT-72" transform="translate(695.695312 0)"/>
     <use xlink:href="#TimesNewRomanPSMT-61" transform="translate(728.996094 0)"/>
     <use xlink:href="#TimesNewRomanPSMT-67" transform="translate(773.380859 0)"/>
     <use xlink:href="#TimesNewRomanPSMT-65" transform="translate(823.380859 0)"/>
    </g>
   </g>
   <g id="legend_2">
    <g id="line2d_30">
     <path d="M 93.881563 846.102957 
L 125.881563 846.102957 
L 157.881563 846.102957 
" style="fill: none; stroke: #2b7bba; stroke-width: 3.5; stroke-linecap: square"/>
    </g>
    <g id="text_26">
     <!-- Shifted Load -->
     <g transform="translate(183.481562 857.302957) scale(0.32 -0.32)">
      <use xlink:href="#TimesNewRomanPSMT-53"/>
      <use xlink:href="#TimesNewRomanPSMT-68" transform="translate(55.615234 0)"/>
      <use xlink:href="#TimesNewRomanPSMT-69" transform="translate(105.615234 0)"/>
      <use xlink:href="#TimesNewRomanPSMT-66" transform="translate(133.398438 0)"/>
      <use xlink:href="#TimesNewRomanPSMT-74" transform="translate(166.699219 0)"/>
      <use xlink:href="#TimesNewRomanPSMT-65" transform="translate(194.482422 0)"/>
      <use xlink:href="#TimesNewRomanPSMT-64" transform="translate(238.867188 0)"/>
      <use xlink:href="#TimesNewRomanPSMT-20" transform="translate(288.867188 0)"/>
      <use xlink:href="#TimesNewRomanPSMT-4c" transform="translate(313.867188 0)"/>
      <use xlink:href="#TimesNewRomanPSMT-6f" transform="translate(374.951172 0)"/>
      <use xlink:href="#TimesNewRomanPSMT-61" transform="translate(424.951172 0)"/>
      <use xlink:href="#TimesNewRomanPSMT-64" transform="translate(469.335938 0)"/>
     </g>
    </g>
    <g id="line2d_31">
     <path d="M 93.881563 891.347957 
L 125.881563 891.347957 
L 157.881563 891.347957 
" style="fill: none; stroke: #f52121; stroke-width: 3.5; stroke-linecap: square"/>
    </g>
    <g id="text_27">
     <!-- Original Load -->
     <g transform="translate(183.481562 902.547957) scale(0.32 -0.32)">
      <use xlink:href="#TimesNewRomanPSMT-4f"/>
      <use xlink:href="#TimesNewRomanPSMT-72" transform="translate(72.216797 0)"/>
      <use xlink:href="#TimesNewRomanPSMT-69" transform="translate(105.517578 0)"/>
      <use xlink:href="#TimesNewRomanPSMT-67" transform="translate(133.300781 0)"/>
      <use xlink:href="#TimesNewRomanPSMT-69" transform="translate(183.300781 0)"/>
      <use xlink:href="#TimesNewRomanPSMT-6e" transform="translate(211.083984 0)"/>
      <use xlink:href="#TimesNewRomanPSMT-61" transform="translate(261.083984 0)"/>
      <use xlink:href="#TimesNewRomanPSMT-6c" transform="translate(305.46875 0)"/>
      <use xlink:href="#TimesNewRomanPSMT-20" transform="translate(333.251953 0)"/>
      <use xlink:href="#TimesNewRomanPSMT-4c" transform="translate(358.251953 0)"/>
      <use xlink:href="#TimesNewRomanPSMT-6f" transform="translate(419.335938 0)"/>
      <use xlink:href="#TimesNewRomanPSMT-61" transform="translate(469.335938 0)"/>
      <use xlink:href="#TimesNewRomanPSMT-64" transform="translate(513.720703 0)"/>
     </g>
    </g>
   </g>
  </g>
 </g>
 <defs>
  <clipPath id="p1a72286b6f">
   <rect x="65.081563" y="52.1975" width="944.117957" height="380.015698"/>
  </clipPath>
  <clipPath id="p8fc71f3c3e">
   <rect x="65.081563" y="558.23726" width="944.117957" height="380.015697"/>
  </clipPath>
 </defs>
</svg>
